<svg width="320" height="512" viewBox="0 0 320 512" fill="none" xmlns="http://www.w3.org/2000/svg">
<g clip-path="url(#clip0_1526_4)">
<path d="M208 48C208 74.5 186.5 96 160 96C133.5 96 112 74.5 112 48C112 21.5 133.5 0 160 0C186.5 0 208 21.5 208 48ZM152 352V480C152 497.7 137.7 512 120 512C102.3 512 87.9996 497.7 87.9996 480V256.9L59.3996 304.5C50.2996 319.6 30.5996 324.5 15.4996 315.4C0.399614 306.3 -4.50039 286.6 4.59962 271.5L62.8996 174.5C80.2996 145.6 111.5 127.9 145.2 127.9H174.9C208.6 127.9 239.8 145.6 257.2 174.5L315.5 271.5C324.6 286.6 319.7 306.3 304.6 315.4C289.5 324.5 269.8 319.6 260.7 304.5L232 256.9V480C232 497.7 217.7 512 200 512C182.3 512 168 497.7 168 480V352H152Z" fill="#101012"/>
</g>
<defs>
<clipPath id="clip0_1526_4">
<rect width="320" height="512" fill="white"/>
</clipPath>
</defs>
</svg>
